HIERARCHY
ROOT SpineBase
{
  OFFSET 0.000000 0.000000 0.000000
  CHANNELS 6 Xposition Yposition Zposition Zrotation Xrotation Yrotation
  JOINT SpineMid
  {
    OFFSET -0.000000 25.094805 0.000000
    CHANNELS 3 Zrotation Xrotation Yrotation
    JOINT SpineShoulder
    {
      OFFSET 0.226065 18.640875 -0.830275
      CHANNELS 3 Zrotation Xrotation Yrotation
      JOINT Neck
      {
        OFFSET 0.121198 6.151298 -0.602743
        CHANNELS 3 Zrotation Xrotation Yrotation
        JOINT Head
        {
          OFFSET 3.426224 10.988809 -2.914436
          CHANNELS 3 Zrotation Xrotation Yrotation
          End Site
          {
            OFFSET 0 0 0
          }
        }
      }
      JOINT ShoulderLeft
      {
        OFFSET -15.756488 -2.209135 -7.974538
        CHANNELS 3 Zrotation Xrotation Yrotation
        JOINT ElbowLeft
        {
          OFFSET -6.522206 -21.400855 -6.630875
          CHANNELS 3 Zrotation Xrotation Yrotation
          JOINT WristLeft
          {
            OFFSET 3.412943 -22.398688 -15.178899
            CHANNELS 3 Zrotation Xrotation Yrotation
            JOINT HandLeft
            {
              OFFSET 4.089695 -6.436834 -1.935936
              CHANNELS 3 Zrotation Xrotation Yrotation
              JOINT HandTipLeft
              {
                OFFSET 1.164332 -4.043215 -2.189822
                CHANNELS 3 Zrotation Xrotation Yrotation
                End Site
                {
                  OFFSET 0 0 0
                }
              }
              JOINT ThumbLeft
              {
                OFFSET 3.022138 2.644340 1.923757
                CHANNELS 3 Zrotation Xrotation Yrotation
                End Site
                {
                  OFFSET 0 0 0
                }
              }
            }
          }
        }
      }
      JOINT ShoulderRight
      {
        OFFSET 13.537891 -4.311433 2.356807
        CHANNELS 3 Zrotation Xrotation Yrotation
        JOINT ElbowRight
        {
          OFFSET 7.632025 -24.958279 8.371565
          CHANNELS 3 Zrotation Xrotation Yrotation
          JOINT WristRight
          {
            OFFSET 14.579563 -9.668867 -17.602128
            CHANNELS 3 Zrotation Xrotation Yrotation
            JOINT HandRight
            {
              OFFSET -0.353278 -4.671632 -2.313155
              CHANNELS 3 Zrotation Xrotation Yrotation
              JOINT HandTipRight
              {
                OFFSET -0.023291 -6.918124 -3.531213
                CHANNELS 3 Zrotation Xrotation Yrotation
                End Site
                {
                  OFFSET 0 0 0
                }
              }
              JOINT ThumbRight
              {
                OFFSET 3.151820 4.579088 -3.708714
                CHANNELS 3 Zrotation Xrotation Yrotation
                End Site
                {
                  OFFSET 0 0 0
                }
              }
            }
          }
        }
      }
    }
  }
  JOINT HipLeft
  {
    OFFSET -5.877323 0.296648 -5.772665
    CHANNELS 3 Zrotation Xrotation Yrotation
    JOINT KneeLeft
    {
      OFFSET 9.109338 -7.525482 -30.626487
      CHANNELS 3 Zrotation Xrotation Yrotation
      JOINT AnkleLeft
      {
        OFFSET -1.825544 -35.269754 3.293291
        CHANNELS 3 Zrotation Xrotation Yrotation
        JOINT FootLeft
        {
          OFFSET 2.284388 -6.561122 -11.231852
          CHANNELS 3 Zrotation Xrotation Yrotation
          End Site
          {
            OFFSET 0 0 0
          }
        }
      }
    }
  }
  JOINT HipRight
  {
    OFFSET 5.786685 0.063694 -1.050716
    CHANNELS 3 Zrotation Xrotation Yrotation
    JOINT KneeRight
    {
      OFFSET 23.987515 -6.616759 -21.726652
      CHANNELS 3 Zrotation Xrotation Yrotation
      JOINT AnkleRight
      {
        OFFSET -6.348823 -37.512013 1.514096
        CHANNELS 3 Zrotation Xrotation Yrotation
        JOINT FootRight
        {
          OFFSET 2.092468 -6.568018 -11.222604
          CHANNELS 3 Zrotation Xrotation Yrotation
          End Site
          {
            OFFSET 0 0 0
          }
        }
      }
    }
  }
}
MOTION
Frames: 9
Frame Time: 0.033333
7.542430 52.483215 389.390171 0.000000 0.000000 -22.039614 -0.000000 -0.000000 22.039614 -0.000000 0.000000 0.000000 -0.000000 0.000000 0.000000 0.000000 0.000000 0.000000 -0.000000 0.000000 0.000000 -0.000000 0.000000 0.000000 -0.000000 0.000000 0.000000 -0.000000 0.000000 0.000000 0.000000 0.000000 0.000000 0.000000 0.000000 0.000000 -0.000000 0.000000 0.000000 -0.000000 0.000000 0.000000 -0.000000 0.000000 0.000000 -0.000000 0.000000 0.000000 0.000000 0.000000 0.000000 0.000000 0.000000 0.000000 -0.000000 -0.000000 22.039614 -0.000000 0.000000 0.000000 -0.000000 0.000000 0.000000 0.000000 0.000000 0.000000 -0.000000 -0.000000 22.039614 -0.000000 0.000000 0.000000 -0.000000 0.000000 0.000000 0.000000 0.000000 0.000000
7.460572 52.436245 389.583701 -0.200893 -0.292113 -22.152178 0.075920 0.346300 22.151437 -0.000000 0.000000 0.000000 -0.000000 0.000000 0.000000 0.000000 0.000000 0.000000 -0.000000 0.000000 0.000000 -0.000000 0.000000 0.000000 0.446296 1.798168 0.994165 -2.237304 -2.486273 -0.332698 0.000000 0.000000 0.000000 0.000000 0.000000 0.000000 -0.000000 0.000000 0.000000 -0.000000 0.000000 0.000000 1.250270 3.497148 -0.908801 -0.135572 -1.698717 0.325472 0.000000 0.000000 0.000000 0.000000 0.000000 0.000000 0.075920 0.346300 22.151437 -0.000000 0.000000 0.000000 -0.000000 0.000000 0.000000 0.000000 0.000000 0.000000 -0.195905 0.149484 22.943646 0.327041 0.075285 -0.791248 -0.000000 0.000000 0.000000 0.000000 0.000000 0.000000
7.363788 52.398191 389.750363 -0.414474 -0.539121 -22.210725 0.179941 0.655788 22.207745 -0.000000 0.000000 0.000000 -0.000000 0.000000 0.000000 0.000000 0.000000 0.000000 1.201519 0.448920 -0.514834 -2.155836 -0.828618 1.093220 1.860441 3.809504 1.285462 -3.991690 -4.560293 -0.888848 0.000000 0.000000 0.000000 0.000000 0.000000 0.000000 -0.000000 0.000000 0.000000 -0.283402 -0.853563 -0.786871 2.845021 7.540883 -1.174584 -0.623947 -3.489718 0.811351 0.000000 0.000000 0.000000 0.000000 0.000000 0.000000 0.179941 0.655788 22.207745 -0.000000 0.000000 0.000000 -0.000000 0.000000 0.000000 0.000000 0.000000 0.000000 -0.264763 0.350266 23.553388 0.529724 0.102385 -1.342213 -0.000000 0.000000 0.000000 0.000000 0.000000 0.000000
7.252079 52.369054 389.890158 -0.640844 -0.741318 -22.216549 0.313026 0.928565 22.209866 -0.000000 0.000000 0.000000 -0.000000 0.000000 0.000000 0.000000 0.000000 0.000000 1.578661 0.595131 -0.680496 -2.862167 -1.107179 1.453519 2.598641 5.341543 1.813755 -5.379034 -6.201623 -1.479419 0.000000 0.000000 0.000000 0.000000 0.000000 0.000000 -0.900510 -0.155533 -0.351524 0.466733 -1.069346 -0.731452 4.420069 10.558270 -1.991143 -1.407232 -5.170470 1.378467 0.000000 0.000000 0.000000 0.000000 0.000000 0.000000 0.313026 0.928565 22.209866 -0.000000 0.000000 0.000000 -0.000000 0.000000 0.000000 0.000000 0.000000 0.000000 -0.211828 0.602524 23.878849 0.611863 0.085722 -1.662428 -0.000000 0.000000 0.000000 0.000000 0.000000 0.000000
7.125444 52.348833 390.003084 -0.880121 -0.898940 -22.170483 0.475948 1.164537 22.158741 -0.000000 0.000000 0.000000 -0.000000 0.000000 0.000000 0.000000 0.000000 0.000000 1.805468 0.690856 -0.783178 -3.316982 -1.286761 1.691092 3.177144 6.476495 2.196861 -6.435544 -7.360956 -1.954997 0.000000 0.000000 0.000000 0.000000 0.000000 0.000000 -1.098905 -0.234040 -0.443415 0.503392 -1.327016 -0.866741 6.017913 12.838841 -2.869567 -2.426002 -6.581769 1.964213 0.000000 0.000000 0.000000 0.000000 0.000000 0.000000 0.645136 1.463876 21.324917 -0.266428 -0.217324 0.829438 -0.000000 0.000000 0.000000 0.000000 0.000000 0.000000 -0.039748 0.905591 23.926725 0.576320 0.027623 -1.758807 -0.000000 0.000000 0.000000 0.000000 0.000000 0.000000
6.983884 52.337528 390.089143 -1.132436 -1.012170 -22.072914 0.669306 1.363408 22.054946 -0.000000 0.000000 0.000000 -0.000000 0.000000 0.000000 0.000000 0.000000 0.000000 1.880909 0.736658 -0.821899 -3.517933 -1.363370 1.806452 3.575857 7.116223 2.391293 -7.157772 -7.983490 -2.199184 0.000000 0.000000 0.000000 0.000000 0.000000 0.000000 -1.245945 -0.326636 -0.522603 0.481346 -1.533039 -0.944470 7.560772 14.289436 -3.728346 -3.626015 -7.630973 2.532443 0.000000 0.000000 0.000000 0.000000 0.000000 0.000000 0.888817 1.713150 20.992457 -0.330176 -0.247900 1.055883 -0.000000 0.000000 0.000000 0.000000 0.000000 0.000000 0.251317 1.258111 23.700445 0.424967 -0.071517 -1.635672 -0.000000 0.000000 0.000000 0.000000 0.000000 0.000000
6.764763 52.322637 390.227418 -1.489931 -1.210851 -22.008103 0.928080 1.680666 21.978745 -0.000000 0.000000 0.000000 0.076298 -0.768658 0.260003 0.000000 0.000000 0.000000 1.853503 0.689872 -0.798186 -3.554540 -1.238366 1.839622 4.365523 8.016454 2.660579 -9.412880 -9.900438 -2.592707 0.000000 0.000000 0.000000 0.000000 0.000000 0.000000 -1.248097 -0.514584 -0.582675 -0.021899 -1.963645 -0.917465 10.653236 16.736722 -5.640106 -5.955392 -10.998751 3.628998 0.000000 0.000000 0.000000 0.000000 0.000000 0.000000 1.214719 2.104643 20.608575 -0.417410 -0.295970 1.359625 -0.000000 0.000000 0.000000 0.000000 0.000000 0.000000 0.766795 1.976102 23.312400 0.031141 -0.335110 -1.328418 -0.000000 0.000000 0.000000 0.000000 0.000000 0.000000
6.553288 52.336610 390.240987 -1.828133 -1.188668 -21.753077 0.743639 1.107872 21.700428 0.726732 0.435394 0.024334 0.070066 -0.919930 0.305386 0.000000 0.000000 0.000000 1.339209 0.469295 -0.564762 -2.863749 -0.917816 1.514275 4.312687 7.626194 2.535186 -8.019905 -7.646545 -2.152410 0.000000 0.000000 0.000000 0.000000 0.000000 0.000000 -1.320461 -0.701847 -0.666613 -0.288260 -2.210961 -0.887899 12.085299 17.046075 -6.359847 -7.448705 -11.025277 4.130541 0.000000 0.000000 0.000000 0.000000 0.000000 0.000000 1.622352 2.224364 20.019252 -0.493827 -0.291826 1.681316 -0.000000 0.000000 0.000000 0.000000 0.000000 0.000000 1.545790 2.600324 22.187531 -0.575664 -0.649955 -0.487239 -0.000000 0.000000 0.000000 0.000000 0.000000 0.000000
6.309498 52.348768 390.019937 -2.240714 -0.753692 -20.824752 1.068748 0.881279 20.764252 0.928333 0.310309 0.035080 0.170244 -1.098080 0.388358 0.000000 0.000000 0.000000 1.098909 0.453642 -0.483921 -2.490233 -0.810591 1.359171 3.835174 6.974894 2.400800 -5.840662 -4.952349 -1.792937 0.000000 0.000000 0.000000 0.000000 0.000000 0.000000 -1.428774 -0.633284 -0.682147 -0.210274 -2.409977 -1.028561 12.346852 16.318004 -6.279328 -8.167095 -10.714955 4.353728 0.000000 0.000000 0.000000 0.000000 0.000000 0.000000 2.296602 1.900434 18.688074 -0.572834 -0.228407 2.082936 -0.000000 0.000000 0.000000 0.000000 0.000000 0.000000 2.962771 3.042875 19.343521 -1.854535 0.260813 1.143243 0.381196 0.702029 0.634173 0.000000 0.000000 0.000000
